<svg class="main-svg" xmlns="http://www.w3.org/2000/svg" xmlns:xlink="http://www.w3.org/1999/xlink" width="700" height="500" style="" viewBox="0 0 700 500"><rect x="0" y="0" width="700" height="500" style="fill: rgb(255, 255, 255); fill-opacity: 1;"/><defs id="defs-1e0d33"><g class="clips"><clipPath id="clip1e0d33xyplot" class="plotclip"><rect width="540" height="320"/></clipPath><clipPath class="axesclip" id="clip1e0d33x"><rect x="80" y="0" width="540" height="500"/></clipPath><clipPath class="axesclip" id="clip1e0d33y"><rect x="0" y="100" width="700" height="320"/></clipPath><clipPath class="axesclip" id="clip1e0d33xy"><rect x="80" y="100" width="540" height="320"/></clipPath></g><g class="gradients"/><g class="patterns"/></defs><g class="bglayer"/><g class="layer-below"><g class="imagelayer"/><g class="shapelayer"/></g><g class="cartesianlayer"><g class="subplot xy"><g class="layer-subplot"><g class="shapelayer"/><g class="imagelayer"/></g><g class="minor-gridlayer"><g class="x"/><g class="y"/></g><g class="gridlayer"><g class="x"><path class="xgrid crisp" transform="translate(97.42,0)" d="M0,100v320" style="stroke: rgb(235, 240, 248); stroke-opacity: 1; stroke-width: 1px;"/><path class="xgrid crisp" transform="translate(184.51999999999998,0)" d="M0,100v320" style="stroke: rgb(235, 240, 248); stroke-opacity: 1; stroke-width: 1px;"/><path class="xgrid crisp" transform="translate(271.61,0)" d="M0,100v320" style="stroke: rgb(235, 240, 248); stroke-opacity: 1; stroke-width: 1px;"/><path class="xgrid crisp" transform="translate(358.71,0)" d="M0,100v320" style="stroke: rgb(235, 240, 248); stroke-opacity: 1; stroke-width: 1px;"/><path class="xgrid crisp" transform="translate(445.81,0)" d="M0,100v320" style="stroke: rgb(235, 240, 248); stroke-opacity: 1; stroke-width: 1px;"/><path class="xgrid crisp" transform="translate(532.9,0)" d="M0,100v320" style="stroke: rgb(235, 240, 248); stroke-opacity: 1; stroke-width: 1px;"/></g><g class="y"><path class="ygrid crisp" transform="translate(0,377.95)" d="M80,0h540" style="stroke: rgb(235, 240, 248); stroke-opacity: 1; stroke-width: 1px;"/><path class="ygrid crisp" transform="translate(0,335.90999999999997)" d="M80,0h540" style="stroke: rgb(235, 240, 248); stroke-opacity: 1; stroke-width: 1px;"/><path class="ygrid crisp" transform="translate(0,293.86)" d="M80,0h540" style="stroke: rgb(235, 240, 248); stroke-opacity: 1; stroke-width: 1px;"/><path class="ygrid crisp" transform="translate(0,251.81)" d="M80,0h540" style="stroke: rgb(235, 240, 248); stroke-opacity: 1; stroke-width: 1px;"/><path class="ygrid crisp" transform="translate(0,209.76)" d="M80,0h540" style="stroke: rgb(235, 240, 248); stroke-opacity: 1; stroke-width: 1px;"/><path class="ygrid crisp" transform="translate(0,167.72)" d="M80,0h540" style="stroke: rgb(235, 240, 248); stroke-opacity: 1; stroke-width: 1px;"/><path class="ygrid crisp" transform="translate(0,125.67)" d="M80,0h540" style="stroke: rgb(235, 240, 248); stroke-opacity: 1; stroke-width: 1px;"/></g></g><g class="zerolinelayer"><path class="yzl zl crisp" transform="translate(0,420)" d="M80,0h540" style="stroke: rgb(235, 240, 248); stroke-opacity: 1; stroke-width: 2px;"/></g><g class="layer-between"><g class="shapelayer"/><g class="imagelayer"/></g><path class="xlines-below"/><path class="ylines-below"/><g class="overlines-below"/><g class="xaxislayer-below"/><g class="yaxislayer-below"/><g class="overaxes-below"/><g class="overplot"><g class="xy" transform="translate(80,100)" clip-path="url(#clip1e0d33xyplot)"><g class="scatterlayer mlayer"><g class="trace scatter tracea49cd9" style="stroke-miterlimit: 2;"><g class="fills"><g><path class="js-fill" d="M540,320L0,320L0,294.01L87.1,302L104.52,302.93L139.35,304.44L156.77,304.69L191.61,306.12L209.03,306.88L348.39,310.58L365.81,310.75L435.48,311.67L452.9,311.93L540,313.44" style="fill: rgb(99, 110, 250); fill-opacity: 0.5; stroke-width: 0;"/></g><g><path class="js-fill" d="M0,268.37L17.42,271.23L34.84,275.43L69.68,280.48L87.1,284.09L121.94,287.88L139.35,288.8L174.19,290.31L191.61,292.33L209.03,293.93L226.45,294.77L296.13,299.31L313.55,299.99L383.23,301.67L400.65,302.17L540,306.88L540,313.44L452.9,311.93L435.48,311.67L365.81,310.75L348.39,310.58L209.03,306.88L191.61,306.12L156.77,304.69L139.35,304.44L104.52,302.93L87.1,302L0,294.01Z" style="fill: rgb(239, 85, 59); fill-opacity: 0.5; stroke-width: 0;"/></g></g><g class="errorbars"/><g class="lines"><path class="js-line" d="M0,294.01L87.1,302L104.52,302.93L139.35,304.44L156.77,304.69L191.61,306.12L209.03,306.88L348.39,310.58L365.81,310.75L435.48,311.67L452.9,311.93L540,313.44" style="vector-effect: none; fill: none; stroke: rgb(99, 110, 250); stroke-opacity: 1; stroke-width: 2px; opacity: 1;"/></g><g class="points"/><g class="text"/></g><g class="trace scatter tracecfba49" style="stroke-miterlimit: 2;"><g class="fills"><g><path class="js-fill" d="M0,242.63L17.42,247.01L34.84,253.23L52.26,256.68L69.68,261.05L87.1,266.1L104.52,268.95L121.94,271.81L139.35,273.24L174.19,275.51L191.61,278.54L209.03,280.98L226.45,282.16L278.71,287.62L296.13,289.05L365.81,292.25L383.23,292.5L487.74,297.46L505.16,299.23L540,300.32L540,306.88L400.65,302.17L383.23,301.67L313.55,299.99L296.13,299.31L226.45,294.77L209.03,293.93L191.61,292.33L174.19,290.31L139.35,288.8L121.94,287.88L87.1,284.09L69.68,280.48L34.84,275.43L17.42,271.23L0,268.37Z" style="fill: rgb(0, 204, 150); fill-opacity: 0.5; stroke-width: 0;"/></g></g><g class="errorbars"/><g class="lines"><path class="js-line" d="M0,268.37L17.42,271.23L34.84,275.43L69.68,280.48L87.1,284.09L121.94,287.88L139.35,288.8L174.19,290.31L191.61,292.33L209.03,293.93L226.45,294.77L296.13,299.31L313.55,299.99L383.23,301.67L400.65,302.17L540,306.88" style="vector-effect: none; fill: none; stroke: rgb(239, 85, 59); stroke-opacity: 1; stroke-width: 2px; opacity: 1;"/></g><g class="points"/><g class="text"/></g><g class="trace scatter trace5dda07" style="stroke-miterlimit: 2;"><g class="fills"><g><path class="js-fill" d="M0,216.98L17.42,222.87L34.84,231.11L52.26,235.65L69.68,241.71L87.1,248.1L104.52,251.97L121.94,255.75L139.35,257.69L174.19,260.8L191.61,264.83L209.03,268.03L226.45,269.54L261.29,275.26L278.71,276.94L313.55,280.06L330.97,281.23L365.81,283L383.23,283.33L487.74,290.06L505.16,292.25L540,293.68L540,300.32L505.16,299.23L487.74,297.46L383.23,292.5L365.81,292.25L296.13,289.05L278.71,287.62L226.45,282.16L209.03,280.98L191.61,278.54L174.19,275.51L139.35,273.24L121.94,271.81L104.52,268.95L87.1,266.1L69.68,261.05L52.26,256.68L34.84,253.23L17.42,247.01L0,242.63Z" style="fill: rgb(171, 99, 250); fill-opacity: 0.5; stroke-width: 0;"/></g></g><g class="errorbars"/><g class="lines"><path class="js-line" d="M0,242.63L17.42,247.01L34.84,253.23L52.26,256.68L69.68,261.05L87.1,266.1L104.52,268.95L121.94,271.81L139.35,273.24L174.19,275.51L191.61,278.54L209.03,280.98L226.45,282.16L278.71,287.62L296.13,289.05L365.81,292.25L383.23,292.5L487.74,297.46L505.16,299.23L540,300.32" style="vector-effect: none; fill: none; stroke: rgb(0, 204, 150); stroke-opacity: 1; stroke-width: 2px; opacity: 1;"/></g><g class="points"/><g class="text"/></g><g class="trace scatter trace85ad59" style="stroke-miterlimit: 2;"><g class="fills"><g><path class="js-fill" d="M0,191.5L17.42,198.82L34.84,209.08L52.26,214.71L69.68,222.62L87.1,230.1L104.52,235.07L121.94,239.69L139.35,242.13L174.19,246.17L191.61,251.13L209.03,255.16L226.45,257.01L261.29,264.16L278.71,266.26L296.13,268.62L313.55,270.13L348.39,273.16L365.81,273.75L383.23,274.17L400.65,275.43L435.48,278.71L452.9,279.63L487.74,282.66L505.16,285.27L540,287.04L540,293.68L505.16,292.25L487.74,290.06L383.23,283.33L365.81,283L330.97,281.23L313.55,280.06L278.71,276.94L261.29,275.26L226.45,269.54L209.03,268.03L191.61,264.83L174.19,260.8L139.35,257.69L121.94,255.75L104.52,251.97L87.1,248.1L69.68,241.71L52.26,235.65L34.84,231.11L17.42,222.87L0,216.98Z" style="fill: rgb(255, 161, 90); fill-opacity: 0.5; stroke-width: 0;"/></g></g><g class="errorbars"/><g class="lines"><path class="js-line" d="M0,216.98L17.42,222.87L34.84,231.11L52.26,235.65L69.68,241.71L87.1,248.1L104.52,251.97L121.94,255.75L139.35,257.69L174.19,260.8L191.61,264.83L209.03,268.03L226.45,269.54L261.29,275.26L278.71,276.94L313.55,280.06L330.97,281.23L365.81,283L383.23,283.33L487.74,290.06L505.16,292.25L540,293.68" style="vector-effect: none; fill: none; stroke: rgb(171, 99, 250); stroke-opacity: 1; stroke-width: 2px; opacity: 1;"/></g><g class="points"/><g class="text"/></g><g class="trace scatter tracec56d8c" style="stroke-miterlimit: 2;"><g class="fills"><g><path class="js-fill" d="M0,166.11L17.42,174.94L34.84,187.22L52.26,193.94L69.68,203.78L87.1,212.19L104.52,218.25L121.94,223.8L139.35,226.66L156.77,228.76L174.19,231.7L191.61,237.59L209.03,242.38L226.45,244.48L243.87,249.19L261.29,253.06L278.71,255.58L296.13,258.44L313.55,260.29L348.39,263.91L365.81,264.5L383.23,265.09L400.65,266.52L435.48,270.47L452.9,271.56L487.74,275.35L505.16,278.29L540,280.48L540,287.04L505.16,285.27L487.74,282.66L452.9,279.63L435.48,278.71L400.65,275.43L383.23,274.17L365.81,273.75L348.39,273.16L313.55,270.13L296.13,268.62L278.71,266.26L261.29,264.16L226.45,257.01L209.03,255.16L191.61,251.13L174.19,246.17L139.35,242.13L121.94,239.69L104.52,235.07L87.1,230.1L69.68,222.62L52.26,214.71L34.84,209.08L17.42,198.82L0,191.5Z" style="fill: rgb(25, 211, 243); fill-opacity: 0.5; stroke-width: 0;"/></g></g><g class="errorbars"/><g class="lines"><path class="js-line" d="M0,191.5L17.42,198.82L34.84,209.08L52.26,214.71L69.68,222.62L87.1,230.1L104.52,235.07L121.94,239.69L139.35,242.13L174.19,246.17L191.61,251.13L209.03,255.16L226.45,257.01L261.29,264.16L278.71,266.26L296.13,268.62L313.55,270.13L348.39,273.16L365.81,273.75L383.23,274.17L400.65,275.43L435.48,278.71L452.9,279.63L487.74,282.66L505.16,285.27L540,287.04" style="vector-effect: none; fill: none; stroke: rgb(255, 161, 90); stroke-opacity: 1; stroke-width: 2px; opacity: 1;"/></g><g class="points"/><g class="text"/></g><g class="trace scatter traceb5c1ad" style="stroke-miterlimit: 2;"><g class="fills"><g><path class="js-fill" d="M0,140.88L17.42,151.22L34.84,165.35L52.26,173.26L69.68,185.03L87.1,194.36L104.52,201.51L121.94,207.99L139.35,211.27L156.77,213.71L174.19,217.41L191.61,224.13L209.03,229.6L226.45,232.04L243.87,237.92L261.29,242.04L278.71,244.9L296.13,248.27L313.55,250.45L348.39,254.66L365.81,255.25L383.23,256L400.65,257.6L435.48,262.23L452.9,263.57L487.74,268.11L505.16,271.31L522.58,272.99L540,267.69L540,280.48L505.16,278.29L487.74,275.35L452.9,271.56L435.48,270.47L400.65,266.52L383.23,265.09L365.81,264.5L348.39,263.91L313.55,260.29L296.13,258.44L278.71,255.58L261.29,253.06L243.87,249.19L226.45,244.48L209.03,242.38L191.61,237.59L174.19,231.7L156.77,228.76L139.35,226.66L121.94,223.8L104.52,218.25L87.1,212.19L69.68,203.78L52.26,193.94L34.84,187.22L17.42,174.94L0,166.11Z" style="fill: rgb(255, 102, 146); fill-opacity: 0.5; stroke-width: 0;"/></g></g><g class="errorbars"/><g class="lines"><path class="js-line" d="M0,166.11L17.42,174.94L34.84,187.22L52.26,193.94L69.68,203.78L87.1,212.19L104.52,218.25L121.94,223.8L139.35,226.66L156.77,228.76L174.19,231.7L191.61,237.59L209.03,242.38L226.45,244.48L243.87,249.19L261.29,253.06L278.71,255.58L296.13,258.44L313.55,260.29L348.39,263.91L365.81,264.5L383.23,265.09L400.65,266.52L435.48,270.47L452.9,271.56L487.74,275.35L505.16,278.29L540,280.48" style="vector-effect: none; fill: none; stroke: rgb(25, 211, 243); stroke-opacity: 1; stroke-width: 2px; opacity: 1;"/></g><g class="points"/><g class="text"/></g><g class="trace scatter traced38d22" style="stroke-miterlimit: 2;"><g class="fills"><g><path class="js-fill" d="M0,115.82L17.42,127.76L34.84,143.65L52.26,152.65L69.68,166.36L87.1,176.54L104.52,184.86L121.94,192.18L139.35,195.88L156.77,198.65L174.19,203.19L191.61,210.76L209.03,216.82L226.45,219.59L243.87,226.66L261.29,231.03L278.71,234.31L296.13,238.18L313.55,240.7L348.39,245.41L365.81,246L383.23,246.92L400.65,248.77L418.06,251.97L435.48,253.99L452.9,255.58L470.32,258.02L505.16,264.41L522.58,266.35L540,255L540,267.69L522.58,272.99L505.16,271.31L487.74,268.11L452.9,263.57L435.48,262.23L400.65,257.6L383.23,256L365.81,255.25L348.39,254.66L313.55,250.45L296.13,248.27L278.71,244.9L261.29,242.04L243.87,237.92L226.45,232.04L209.03,229.6L191.61,224.13L174.19,217.41L156.77,213.71L139.35,211.27L121.94,207.99L104.52,201.51L87.1,194.36L69.68,185.03L52.26,173.26L34.84,165.35L17.42,151.22L0,140.88Z" style="fill: rgb(182, 232, 128); fill-opacity: 0.5; stroke-width: 0;"/></g></g><g class="errorbars"/><g class="lines"><path class="js-line" d="M0,140.88L17.42,151.22L34.84,165.35L52.26,173.26L69.68,185.03L87.1,194.36L104.52,201.51L121.94,207.99L139.35,211.27L156.77,213.71L174.19,217.41L191.61,224.13L209.03,229.6L226.45,232.04L243.87,237.92L261.29,242.04L278.71,244.9L296.13,248.27L313.55,250.45L348.39,254.66L365.81,255.25L383.23,256L400.65,257.6L435.48,262.23L452.9,263.57L487.74,268.11L505.16,271.31L522.58,272.99L540,267.69" style="vector-effect: none; fill: none; stroke: rgb(255, 102, 146); stroke-opacity: 1; stroke-width: 2px; opacity: 1;"/></g><g class="points"/><g class="text"/></g><g class="trace scatter trace5e9e2a" style="stroke-miterlimit: 2;"><g class="fills"><g><path class="js-fill" d="M0,90.84L17.42,104.64L34.84,121.96L52.26,132.13L69.68,147.78L87.1,158.79L104.52,168.21L121.94,176.45L139.35,180.49L156.77,183.6L174.19,189.07L191.61,197.39L209.03,204.03L226.45,207.23L243.87,215.39L261.29,220.01L278.71,223.71L296.13,228.09L313.55,230.94L330.97,233.13L348.39,236.24L383.23,237.84L400.65,239.94L418.06,243.73L435.48,245.83L452.9,247.6L470.32,250.37L505.16,257.6L522.58,259.7L540,242.3L540,255L522.58,266.35L505.16,264.41L470.32,258.02L452.9,255.58L435.48,253.99L418.06,251.97L400.65,248.77L383.23,246.92L365.81,246L348.39,245.41L313.55,240.7L296.13,238.18L278.71,234.31L261.29,231.03L243.87,226.66L226.45,219.59L209.03,216.82L191.61,210.76L174.19,203.19L156.77,198.65L139.35,195.88L121.94,192.18L104.52,184.86L87.1,176.54L69.68,166.36L52.26,152.65L34.84,143.65L17.42,127.76L0,115.82Z" style="fill: rgb(255, 151, 255); fill-opacity: 0.5; stroke-width: 0;"/></g></g><g class="errorbars"/><g class="lines"><path class="js-line" d="M0,115.82L17.42,127.76L34.84,143.65L52.26,152.65L69.68,166.36L87.1,176.54L104.52,184.86L121.94,192.18L139.35,195.88L156.77,198.65L174.19,203.19L191.61,210.76L209.03,216.82L226.45,219.59L243.87,226.66L261.29,231.03L278.71,234.31L296.13,238.18L313.55,240.7L348.39,245.41L365.81,246L383.23,246.92L400.65,248.77L418.06,251.97L435.48,253.99L452.9,255.58L470.32,258.02L505.16,264.41L522.58,266.35L540,255" style="vector-effect: none; fill: none; stroke: rgb(182, 232, 128); stroke-opacity: 1; stroke-width: 2px; opacity: 1;"/></g><g class="points"/><g class="text"/></g><g class="trace scatter tracea68755" style="stroke-miterlimit: 2;"><g class="fills"><g><path class="js-fill" d="M0,65.87L17.42,81.59L34.84,100.35L52.26,111.7L69.68,129.19L87.1,141.13L104.52,151.64L121.94,160.73L139.35,165.1L156.77,168.55L174.19,174.94L191.61,184.1L209.03,191.34L226.45,194.87L243.87,204.12L261.29,209.08L278.71,213.12L296.13,217.99L313.55,221.19L330.97,223.63L348.39,227.08L365.81,227.5L383.23,228.76L400.65,231.2L418.06,235.49L452.9,239.61L470.32,242.72L505.16,250.79L522.58,253.06L540,229.6L540,242.3L522.58,259.7L505.16,257.6L470.32,250.37L452.9,247.6L435.48,245.83L418.06,243.73L400.65,239.94L383.23,237.84L348.39,236.24L330.97,233.13L313.55,230.94L296.13,228.09L278.71,223.71L261.29,220.01L243.87,215.39L226.45,207.23L209.03,204.03L191.61,197.39L174.19,189.07L156.77,183.6L139.35,180.49L121.94,176.45L104.52,168.21L87.1,158.79L69.68,147.78L52.26,132.13L34.84,121.96L17.42,104.64L0,90.84Z" style="fill: rgb(254, 203, 82); fill-opacity: 0.5; stroke-width: 0;"/></g></g><g class="errorbars"/><g class="lines"><path class="js-line" d="M0,90.84L17.42,104.64L34.84,121.96L52.26,132.13L69.68,147.78L87.1,158.79L104.52,168.21L121.94,176.45L139.35,180.49L156.77,183.6L174.19,189.07L191.61,197.39L209.03,204.03L226.45,207.23L243.87,215.39L261.29,220.01L278.71,223.71L296.13,228.09L313.55,230.94L330.97,233.13L348.39,236.24L383.23,237.84L400.65,239.94L418.06,243.73L435.48,245.83L452.9,247.6L470.32,250.37L505.16,257.6L522.58,259.7L540,242.3" style="vector-effect: none; fill: none; stroke: rgb(255, 151, 255); stroke-opacity: 1; stroke-width: 2px; opacity: 1;"/></g><g class="points"/><g class="text"/></g><g class="trace scatter trace360f49" style="stroke-miterlimit: 2;"><g class="fills"><g><path class="js-fill" d="M0,40.89L17.42,58.55L34.84,78.73L52.26,91.43L69.68,110.86L104.52,135.33L121.94,145L139.35,149.71L156.77,153.58L174.19,160.89L191.61,170.9L209.03,178.64L226.45,182.59L243.87,192.85L261.29,198.15L278.71,202.6L296.13,207.99L348.39,217.83L365.81,218.33L383.23,219.76L400.65,222.45L418.06,227.24L435.48,229.51L452.9,231.7L470.32,235.07L505.16,243.98L522.58,246.42L540,216.98L540,229.6L522.58,253.06L505.16,250.79L470.32,242.72L452.9,239.61L418.06,235.49L400.65,231.2L383.23,228.76L365.81,227.5L348.39,227.08L330.97,223.63L313.55,221.19L296.13,217.99L278.71,213.12L261.29,209.08L243.87,204.12L226.45,194.87L209.03,191.34L191.61,184.1L174.19,174.94L156.77,168.55L139.35,165.1L121.94,160.73L104.52,151.64L87.1,141.13L69.68,129.19L52.26,111.7L34.84,100.35L17.42,81.59L0,65.87Z" style="fill: rgb(99, 110, 250); fill-opacity: 0.5; stroke-width: 0;"/></g></g><g class="errorbars"/><g class="lines"><path class="js-line" d="M0,65.87L17.42,81.59L34.84,100.35L52.26,111.7L69.68,129.19L87.1,141.13L104.52,151.64L121.94,160.73L139.35,165.1L156.77,168.55L174.19,174.94L191.61,184.1L209.03,191.34L226.45,194.87L243.87,204.12L261.29,209.08L278.71,213.12L296.13,217.99L313.55,221.19L330.97,223.63L348.39,227.08L365.81,227.5L383.23,228.76L400.65,231.2L418.06,235.49L452.9,239.61L470.32,242.72L505.16,250.79L522.58,253.06L540,229.6" style="vector-effect: none; fill: none; stroke: rgb(254, 203, 82); stroke-opacity: 1; stroke-width: 2px; opacity: 1;"/></g><g class="points"/><g class="text"/></g><g class="trace scatter trace2509e6" style="stroke-miterlimit: 2;"><g class="fills"><g><path class="js-fill" d="M0,16L17.42,35.51L34.84,57.29L52.26,71.25L69.68,92.53L104.52,119.1L121.94,129.36L139.35,134.4L156.77,138.61L174.19,146.93L191.61,157.7L209.03,165.94L226.45,170.4L243.87,181.5L261.29,187.3L278.71,192.09L296.13,197.9L348.39,208.58L365.81,209.16L383.23,210.76L400.65,213.71L418.06,218.92L435.48,221.44L452.9,223.88L470.32,227.5L505.16,237.17L522.58,239.86L540,204.37L540,216.98L522.58,246.42L505.16,243.98L470.32,235.07L452.9,231.7L435.48,229.51L418.06,227.24L400.65,222.45L383.23,219.76L365.81,218.33L348.39,217.83L296.13,207.99L278.71,202.6L261.29,198.15L243.87,192.85L226.45,182.59L209.03,178.64L191.61,170.9L174.19,160.89L156.77,153.58L139.35,149.71L121.94,145L104.52,135.33L69.68,110.86L52.26,91.43L34.84,78.73L17.42,58.55L0,40.89Z" style="fill: rgb(239, 85, 59); fill-opacity: 0.5; stroke-width: 0;"/></g></g><g class="errorbars"/><g class="lines"><path class="js-line" d="M0,40.89L17.42,58.55L34.84,78.73L52.26,91.43L69.68,110.86L104.52,135.33L121.94,145L139.35,149.71L156.77,153.58L174.19,160.89L191.61,170.9L209.03,178.64L226.45,182.59L243.87,192.85L261.29,198.15L278.71,202.6L296.13,207.99L348.39,217.83L365.81,218.33L383.23,219.76L400.65,222.45L418.06,227.24L435.48,229.51L452.9,231.7L470.32,235.07L505.16,243.98L522.58,246.42L540,216.98" style="vector-effect: none; fill: none; stroke: rgb(99, 110, 250); stroke-opacity: 1; stroke-width: 2px; opacity: 1;"/></g><g class="points"/><g class="text"/></g><g class="trace scatter tracee13205" style="stroke-miterlimit: 2;"><g class="fills"/><g class="errorbars"/><g class="lines"><path class="js-line" d="M0,16L17.42,35.51L34.84,57.29L52.26,71.25L69.68,92.53L104.52,119.1L121.94,129.36L139.35,134.4L156.77,138.61L174.19,146.93L191.61,157.7L209.03,165.94L226.45,170.4L243.87,181.5L261.29,187.3L278.71,192.09L296.13,197.9L348.39,208.58L365.81,209.16L383.23,210.76L400.65,213.71L418.06,218.92L435.48,221.44L452.9,223.88L470.32,227.5L505.16,237.17L522.58,239.86L540,204.37" style="vector-effect: none; fill: none; stroke: rgb(239, 85, 59); stroke-opacity: 1; stroke-width: 2px; opacity: 1;"/></g><g class="points"/><g class="text"/></g></g></g></g><g class="zerolinelayer-above"/><path class="xlines-above crisp" d="M0,0" style="fill: none;"/><path class="ylines-above crisp" d="M0,0" style="fill: none;"/><g class="overlines-above"/><g class="xaxislayer-above"><g class="xtick"><text text-anchor="middle" x="0" y="433" transform="translate(97.42,0)" style="font-family: 'Open Sans', verdana, arial, sans-serif; font-size: 12px; fill: rgb(42, 63, 95); fill-opacity: 1; white-space: pre;">1995</text></g><g class="xtick"><text text-anchor="middle" x="0" y="433" style="font-family: 'Open Sans', verdana, arial, sans-serif; font-size: 12px; fill: rgb(42, 63, 95); fill-opacity: 1; white-space: pre;" transform="translate(184.51999999999998,0)">2000</text></g><g class="xtick"><text text-anchor="middle" x="0" y="433" style="font-family: 'Open Sans', verdana, arial, sans-serif; font-size: 12px; fill: rgb(42, 63, 95); fill-opacity: 1; white-space: pre;" transform="translate(271.61,0)">2005</text></g><g class="xtick"><text text-anchor="middle" x="0" y="433" style="font-family: 'Open Sans', verdana, arial, sans-serif; font-size: 12px; fill: rgb(42, 63, 95); fill-opacity: 1; white-space: pre;" transform="translate(358.71,0)">2010</text></g><g class="xtick"><text text-anchor="middle" x="0" y="433" style="font-family: 'Open Sans', verdana, arial, sans-serif; font-size: 12px; fill: rgb(42, 63, 95); fill-opacity: 1; white-space: pre;" transform="translate(445.81,0)">2015</text></g><g class="xtick"><text text-anchor="middle" x="0" y="433" style="font-family: 'Open Sans', verdana, arial, sans-serif; font-size: 12px; fill: rgb(42, 63, 95); fill-opacity: 1; white-space: pre;" transform="translate(532.9,0)">2020</text></g><g class="xtick"><text text-anchor="middle" x="0" y="433" style="font-family: 'Open Sans', verdana, arial, sans-serif; font-size: 12px; fill: rgb(42, 63, 95); fill-opacity: 1; white-space: pre;" transform="translate(620,0)">2025</text></g></g><g class="yaxislayer-above"><g class="ytick"><text text-anchor="end" x="79" y="4.199999999999999" transform="translate(0,420)" style="font-family: 'Open Sans', verdana, arial, sans-serif; font-size: 12px; fill: rgb(42, 63, 95); fill-opacity: 1; white-space: pre;">0</text></g><g class="ytick"><text text-anchor="end" x="79" y="4.199999999999999" style="font-family: 'Open Sans', verdana, arial, sans-serif; font-size: 12px; fill: rgb(42, 63, 95); fill-opacity: 1; white-space: pre;" transform="translate(0,377.95)">5</text></g><g class="ytick"><text text-anchor="end" x="79" y="4.199999999999999" style="font-family: 'Open Sans', verdana, arial, sans-serif; font-size: 12px; fill: rgb(42, 63, 95); fill-opacity: 1; white-space: pre;" transform="translate(0,335.90999999999997)">10</text></g><g class="ytick"><text text-anchor="end" x="79" y="4.199999999999999" style="font-family: 'Open Sans', verdana, arial, sans-serif; font-size: 12px; fill: rgb(42, 63, 95); fill-opacity: 1; white-space: pre;" transform="translate(0,293.86)">15</text></g><g class="ytick"><text text-anchor="end" x="79" y="4.199999999999999" style="font-family: 'Open Sans', verdana, arial, sans-serif; font-size: 12px; fill: rgb(42, 63, 95); fill-opacity: 1; white-space: pre;" transform="translate(0,251.81)">20</text></g><g class="ytick"><text text-anchor="end" x="79" y="4.199999999999999" style="font-family: 'Open Sans', verdana, arial, sans-serif; font-size: 12px; fill: rgb(42, 63, 95); fill-opacity: 1; white-space: pre;" transform="translate(0,209.76)">25</text></g><g class="ytick"><text text-anchor="end" x="79" y="4.199999999999999" style="font-family: 'Open Sans', verdana, arial, sans-serif; font-size: 12px; fill: rgb(42, 63, 95); fill-opacity: 1; white-space: pre;" transform="translate(0,167.72)">30</text></g><g class="ytick"><text text-anchor="end" x="79" y="4.199999999999999" style="font-family: 'Open Sans', verdana, arial, sans-serif; font-size: 12px; fill: rgb(42, 63, 95); fill-opacity: 1; white-space: pre;" transform="translate(0,125.67)">35</text></g></g><g class="overaxes-above"/></g></g><g class="polarlayer"/><g class="smithlayer"/><g class="ternarylayer"/><g class="geolayer"/><g class="funnelarealayer"/><g class="pielayer"/><g class="iciclelayer"/><g class="treemaplayer"/><g class="sunburstlayer"/><g class="glimages"/><defs id="topdefs-1e0d33"><g class="clips"/><clipPath id="legend1e0d33"><rect width="591" height="48" x="0" y="0"/></clipPath></defs><g class="layer-above"><g class="imagelayer"/><g class="shapelayer"/></g><g class="infolayer"><g class="legend" pointer-events="all" transform="translate(29,45.599999999999994)"><rect class="bg" shape-rendering="crispEdges" style="stroke: rgb(68, 68, 68); stroke-opacity: 1; fill: rgb(255, 255, 255); fill-opacity: 1; stroke-width: 0px;" width="591" height="48" x="0" y="0"/><g class="scrollbox" transform="" clip-path="url(#legend1e0d33)"><text class="legendtitletext" text-anchor="start" x="2" y="18.2" style="font-family: 'Open Sans', verdana, arial, sans-serif; font-size: 14px; fill: rgb(42, 63, 95); fill-opacity: 1; white-space: pre;">Month</text><g class="groups" transform=""><g class="traces" transform="translate(53.53125,14.5)" style="opacity: 1;"><text class="legendtext" text-anchor="start" x="40" y="4.680000000000001" style="font-family: 'Open Sans', verdana, arial, sans-serif; font-size: 12px; fill: rgb(42, 63, 95); fill-opacity: 1; white-space: pre;">Jan</text><g class="layers"><g class="legendfill"><path class="js-fill" d="M5,-2h30v6h-30z" style="stroke-width: 0; fill: rgb(99, 110, 250); fill-opacity: 0.5;"/></g><g class="legendlines"><path class="js-line" d="M5,-2h30" style="fill: none; stroke: rgb(99, 110, 250); stroke-opacity: 1; stroke-width: 2px;"/></g><g class="legendsymbols"><g class="legendpoints"/></g></g><rect class="legendtoggle" x="0" y="-9.5" width="63.765625" height="19" style="fill: rgb(0, 0, 0); fill-opacity: 0;"/></g></g><g class="groups" transform="translate(66.265625,0)"><g class="traces" transform="translate(53.53125,14.5)" style="opacity: 1;"><text class="legendtext" text-anchor="start" x="40" y="4.680000000000001" style="font-family: 'Open Sans', verdana, arial, sans-serif; font-size: 12px; fill: rgb(42, 63, 95); fill-opacity: 1; white-space: pre;">Feb</text><g class="layers"><g class="legendfill"><path class="js-fill" d="M5,-2h30v6h-30z" style="stroke-width: 0; fill: rgb(239, 85, 59); fill-opacity: 0.5;"/></g><g class="legendlines"><path class="js-line" d="M5,-2h30" style="fill: none; stroke: rgb(239, 85, 59); stroke-opacity: 1; stroke-width: 2px;"/></g><g class="legendsymbols"><g class="legendpoints"/></g></g><rect class="legendtoggle" x="0" y="-9.5" width="64.251953125" height="19" style="fill: rgb(0, 0, 0); fill-opacity: 0;"/></g></g><g class="groups" transform="translate(133.017578125,0)"><g class="traces" transform="translate(53.53125,14.5)" style="opacity: 1;"><text class="legendtext" text-anchor="start" x="40" y="4.680000000000001" style="font-family: 'Open Sans', verdana, arial, sans-serif; font-size: 12px; fill: rgb(42, 63, 95); fill-opacity: 1; white-space: pre;">Mar</text><g class="layers"><g class="legendfill"><path class="js-fill" d="M5,-2h30v6h-30z" style="stroke-width: 0; fill: rgb(0, 204, 150); fill-opacity: 0.5;"/></g><g class="legendlines"><path class="js-line" d="M5,-2h30" style="fill: none; stroke: rgb(0, 204, 150); stroke-opacity: 1; stroke-width: 2px;"/></g><g class="legendsymbols"><g class="legendpoints"/></g></g><rect class="legendtoggle" x="0" y="-9.5" width="65.8203125" height="19" style="fill: rgb(0, 0, 0); fill-opacity: 0;"/></g></g><g class="groups" transform="translate(201.337890625,0)"><g class="traces" transform="translate(53.53125,14.5)" style="opacity: 1;"><text class="legendtext" text-anchor="start" x="40" y="4.680000000000001" style="font-family: 'Open Sans', verdana, arial, sans-serif; font-size: 12px; fill: rgb(42, 63, 95); fill-opacity: 1; white-space: pre;">Apr</text><g class="layers"><g class="legendfill"><path class="js-fill" d="M5,-2h30v6h-30z" style="stroke-width: 0; fill: rgb(171, 99, 250); fill-opacity: 0.5;"/></g><g class="legendlines"><path class="js-line" d="M5,-2h30" style="fill: none; stroke: rgb(171, 99, 250); stroke-opacity: 1; stroke-width: 2px;"/></g><g class="legendsymbols"><g class="legendpoints"/></g></g><rect class="legendtoggle" x="0" y="-9.5" width="65.1796875" height="19" style="fill: rgb(0, 0, 0); fill-opacity: 0;"/></g></g><g class="groups" transform="translate(269.017578125,0)"><g class="traces" transform="translate(53.53125,14.5)" style="opacity: 1;"><text class="legendtext" text-anchor="start" x="40" y="4.680000000000001" style="font-family: 'Open Sans', verdana, arial, sans-serif; font-size: 12px; fill: rgb(42, 63, 95); fill-opacity: 1; white-space: pre;">May</text><g class="layers"><g class="legendfill"><path class="js-fill" d="M5,-2h30v6h-30z" style="stroke-width: 0; fill: rgb(255, 161, 90); fill-opacity: 0.5;"/></g><g class="legendlines"><path class="js-line" d="M5,-2h30" style="fill: none; stroke: rgb(255, 161, 90); stroke-opacity: 1; stroke-width: 2px;"/></g><g class="legendsymbols"><g class="legendpoints"/></g></g><rect class="legendtoggle" x="0" y="-9.5" width="67.7265625" height="19" style="fill: rgb(0, 0, 0); fill-opacity: 0;"/></g></g><g class="groups" transform="translate(339.244140625,0)"><g class="traces" transform="translate(53.53125,14.5)" style="opacity: 1;"><text class="legendtext" text-anchor="start" x="40" y="4.680000000000001" style="font-family: 'Open Sans', verdana, arial, sans-serif; font-size: 12px; fill: rgb(42, 63, 95); fill-opacity: 1; white-space: pre;">Jun</text><g class="layers"><g class="legendfill"><path class="js-fill" d="M5,-2h30v6h-30z" style="stroke-width: 0; fill: rgb(25, 211, 243); fill-opacity: 0.5;"/></g><g class="legendlines"><path class="js-line" d="M5,-2h30" style="fill: none; stroke: rgb(25, 211, 243); stroke-opacity: 1; stroke-width: 2px;"/></g><g class="legendsymbols"><g class="legendpoints"/></g></g><rect class="legendtoggle" x="0" y="-9.5" width="64.15625" height="19" style="fill: rgb(0, 0, 0); fill-opacity: 0;"/></g></g><g class="groups" transform="translate(405.900390625,0)"><g class="traces" transform="translate(53.53125,14.5)" style="opacity: 1;"><text class="legendtext" text-anchor="start" x="40" y="4.680000000000001" style="font-family: 'Open Sans', verdana, arial, sans-serif; font-size: 12px; fill: rgb(42, 63, 95); fill-opacity: 1; white-space: pre;">Jul</text><g class="layers"><g class="legendfill"><path class="js-fill" d="M5,-2h30v6h-30z" style="stroke-width: 0; fill: rgb(255, 102, 146); fill-opacity: 0.5;"/></g><g class="legendlines"><path class="js-line" d="M5,-2h30" style="fill: none; stroke: rgb(255, 102, 146); stroke-opacity: 1; stroke-width: 2px;"/></g><g class="legendsymbols"><g class="legendpoints"/></g></g><rect class="legendtoggle" x="0" y="-9.5" width="59.84375" height="19" style="fill: rgb(0, 0, 0); fill-opacity: 0;"/></g></g><g class="groups" transform="translate(468.244140625,0)"><g class="traces" transform="translate(53.53125,14.5)" style="opacity: 1;"><text class="legendtext" text-anchor="start" x="40" y="4.680000000000001" style="font-family: 'Open Sans', verdana, arial, sans-serif; font-size: 12px; fill: rgb(42, 63, 95); fill-opacity: 1; white-space: pre;">Aug</text><g class="layers"><g class="legendfill"><path class="js-fill" d="M5,-2h30v6h-30z" style="stroke-width: 0; fill: rgb(182, 232, 128); fill-opacity: 0.5;"/></g><g class="legendlines"><path class="js-line" d="M5,-2h30" style="fill: none; stroke: rgb(182, 232, 128); stroke-opacity: 1; stroke-width: 2px;"/></g><g class="legendsymbols"><g class="legendpoints"/></g></g><rect class="legendtoggle" x="0" y="-9.5" width="66.71875" height="19" style="fill: rgb(0, 0, 0); fill-opacity: 0;"/></g></g><g class="groups" transform="translate(0,19)"><g class="traces" transform="translate(53.53125,14.5)" style="opacity: 1;"><text class="legendtext" text-anchor="start" x="40" y="4.680000000000001" style="font-family: 'Open Sans', verdana, arial, sans-serif; font-size: 12px; fill: rgb(42, 63, 95); fill-opacity: 1; white-space: pre;">Sep</text><g class="layers"><g class="legendfill"><path class="js-fill" d="M5,-2h30v6h-30z" style="stroke-width: 0; fill: rgb(255, 151, 255); fill-opacity: 0.5;"/></g><g class="legendlines"><path class="js-line" d="M5,-2h30" style="fill: none; stroke: rgb(255, 151, 255); stroke-opacity: 1; stroke-width: 2px;"/></g><g class="legendsymbols"><g class="legendpoints"/></g></g><rect class="legendtoggle" x="0" y="-9.5" width="65.8515625" height="19" style="fill: rgb(0, 0, 0); fill-opacity: 0;"/></g></g><g class="groups" transform="translate(68.3515625,19)"><g class="traces" transform="translate(53.53125,14.5)" style="opacity: 1;"><text class="legendtext" text-anchor="start" x="40" y="4.680000000000001" style="font-family: 'Open Sans', verdana, arial, sans-serif; font-size: 12px; fill: rgb(42, 63, 95); fill-opacity: 1; white-space: pre;">Oct</text><g class="layers"><g class="legendfill"><path class="js-fill" d="M5,-2h30v6h-30z" style="stroke-width: 0; fill: rgb(254, 203, 82); fill-opacity: 0.5;"/></g><g class="legendlines"><path class="js-line" d="M5,-2h30" style="fill: none; stroke: rgb(254, 203, 82); stroke-opacity: 1; stroke-width: 2px;"/></g><g class="legendsymbols"><g class="legendpoints"/></g></g><rect class="legendtoggle" x="0" y="-9.5" width="63.197265625" height="19" style="fill: rgb(0, 0, 0); fill-opacity: 0;"/></g></g><g class="groups" transform="translate(134.048828125,19)"><g class="traces" transform="translate(53.53125,14.5)" style="opacity: 1;"><text class="legendtext" text-anchor="start" x="40" y="4.680000000000001" style="font-family: 'Open Sans', verdana, arial, sans-serif; font-size: 12px; fill: rgb(42, 63, 95); fill-opacity: 1; white-space: pre;">Nov</text><g class="layers"><g class="legendfill"><path class="js-fill" d="M5,-2h30v6h-30z" style="stroke-width: 0; fill: rgb(99, 110, 250); fill-opacity: 0.5;"/></g><g class="legendlines"><path class="js-line" d="M5,-2h30" style="fill: none; stroke: rgb(99, 110, 250); stroke-opacity: 1; stroke-width: 2px;"/></g><g class="legendsymbols"><g class="legendpoints"/></g></g><rect class="legendtoggle" x="0" y="-9.5" width="66.671875" height="19" style="fill: rgb(0, 0, 0); fill-opacity: 0;"/></g></g><g class="groups" transform="translate(203.220703125,19)"><g class="traces" transform="translate(53.53125,14.5)" style="opacity: 1;"><text class="legendtext" text-anchor="start" x="40" y="4.680000000000001" style="font-family: 'Open Sans', verdana, arial, sans-serif; font-size: 12px; fill: rgb(42, 63, 95); fill-opacity: 1; white-space: pre;">Dec</text><g class="layers"><g class="legendfill"><path class="js-fill" d="M5,-2h30v6h-30z" style="stroke-width: 0; fill: rgb(239, 85, 59); fill-opacity: 0.5;"/></g><g class="legendlines"><path class="js-line" d="M5,-2h30" style="fill: none; stroke: rgb(239, 85, 59); stroke-opacity: 1; stroke-width: 2px;"/></g><g class="legendsymbols"><g class="legendpoints"/></g></g><rect class="legendtoggle" x="0" y="-9.5" width="65.89453125" height="19" style="fill: rgb(0, 0, 0); fill-opacity: 0;"/></g></g></g><rect class="scrollbar" rx="20" ry="3" width="0" height="0" style="fill: rgb(128, 139, 164); fill-opacity: 1;" x="0" y="0"/></g><g class="g-gtitle"><text class="gtitle" x="35" y="50" text-anchor="start" dy="0em" style="opacity: 1; font-family: 'Open Sans', verdana, arial, sans-serif; font-size: 17px; fill: rgb(42, 63, 95); fill-opacity: 1; white-space: pre;">Peso Purchasing Power by Year and Month</text></g><g class="g-xtitle"><text class="xtitle" x="350" y="460.3" text-anchor="middle" style="opacity: 1; font-family: 'Open Sans', verdana, arial, sans-serif; font-size: 14px; fill: rgb(42, 63, 95); fill-opacity: 1; white-space: pre;">Year</text></g><g class="g-ytitle"><text class="ytitle" transform="rotate(-90,44.334375,260)" x="44.334375" y="260" text-anchor="middle" style="opacity: 1; font-family: 'Open Sans', verdana, arial, sans-serif; font-size: 14px; fill: rgb(42, 63, 95); fill-opacity: 1; white-space: pre;">Peso Purchasing Power</text></g></g></svg>